# xmcd
#
# Track frame offsets: 
#        150
#        9522
#        20247
#        32254
#        45652
#        56060
#        72608
#        84152
#        97961
#        112793
#        125756
#        137374
#        150724
#        163229
#        179036
#        199403
#        209616
#        220522
#        231226
#        241276
#        252441
#        264634
#        275951
#        287216
#        297967
#
# Disc length: 4092 seconds
#
# Revision: 0
# Processed by: cddbd v1.5.2PL0 Copyright (c) Steve Scherf et al.
# Submitted via: ExactAudioCopy v1.0b1
#
DISCID=800ffa19
DTITLE=Va  - 101 Pirate Radio Hits - Disc 1  FLAC
DYEAR=1900
DGENRE=
TTITLE0=The Fortunes - Caroline
TTITLE1=The Beachboys - Wouldn't it be Nice
TTITLE2=Martha Reeves and the Vandellas - Dancing In The Street
TTITLE3=Spencer Davis Group - Gimme Some Lovin'
TTITLE4=Small Faces - Hey Girl
TTITLE5=Ike and Tina Turner - River Deep, Mountain High
TTITLE6=Manfred Mann - Pretty Flamingo
TTITLE7=The McCoys - Hang On Sloopy
TTITLE8=The Four Seasons - Let's Hang On (To What We've Got)
TTITLE9=Lee Dorsey - Working In The Coalmine
TTITLE10=Wilson Pickett - In The Midnight Hour
TTITLE11=Otis Redding - My Girl
TTITLE12=Lulu - To Sir With Love
TTITLE13=Lorraine Ellison - Stay With Me
TTITLE14=The Animals - The House Of The Rising Sun
TTITLE15=Gene Pitney - I'm Gonna Be Strong
TTITLE16=Gerry and The Pacemakers - Ferry Cross The Mersey
TTITLE17=Bobby Darin - If I Were a Carpenter
TTITLE18=Sandie Shaw - Girl Don't Come
TTITLE19=Little Anthony and The Imperials - Goin' Out Of My head
TTITLE20=Dobie Gray - (I'm In with The) In Crowd
TTITLE21=Cliff Bennett and the Rebel Rousers - Got To Get You Into My Li
TTITLE21=fe
TTITLE22=Graham Bonney - Supergirl
TTITLE23=Sir Douglas Quintet - She's About a Mover
TTITLE24=B Bumble and the Stingers - Nutrocker
EXTD=
EXTT0=
EXTT1=
EXTT2=
EXTT3=
EXTT4=
EXTT5=
EXTT6=
EXTT7=
EXTT8=
EXTT9=
EXTT10=
EXTT11=
EXTT12=
EXTT13=
EXTT14=
EXTT15=
EXTT16=
EXTT17=
EXTT18=
EXTT19=
EXTT20=
EXTT21=
EXTT22=
EXTT23=
EXTT24=
PLAYORDER=
